<?xml version="1.0" encoding="UTF-8"?>
<!DOCTYPE svg PUBLIC "-//W3C//DTD SVG 1.1//EN" "http://www.w3.org/Graphics/SVG/1.1/DTD/svg11.dtd">
<!-- Creator: CorelDRAW 2021.5 -->
<svg xmlns="http://www.w3.org/2000/svg" xml:space="preserve" width="200" height="60" version="1.1" style="shape-rendering:geometricPrecision; text-rendering:geometricPrecision; image-rendering:optimizeQuality; fill-rule:evenodd; clip-rule:evenodd"
viewBox="0 0 6773.32 1015.98"
 xmlns:xlink="http://www.w3.org/1999/xlink"
 xmlns:xodm="http://www.corel.com/coreldraw/odm/2003">
 <defs>
  <style type="text/css">
   <![CDATA[
    .fil0 {fill:none}
    .fil1 {fill:#041F40}
    .fil2 {fill:#041F40;fill-rule:nonzero}
   ]]>
  </style>
 </defs>
 <g id="Слой_x0020_1">
  <metadata id="CorelCorpID_0Corel-Layer"/>
  <rect class="fil0" x="-0.02" y="-0" width="200" height="60"/>
  <g id="_2520746569728">
   <path class="fil1" d="M1937.18 228.4l-38.78 -37.1 659.68 0c-12.91,12.37 -25.81,24.77 -38.76,37.1l-582.14 0zm206.01 98.47l170.1 0c12.14,11.55 24.37,23.13 36.38,34.81 0.51,76.83 0.02,153.84 0.02,230.69 -40.42,10.88 -81.19,21.66 -121.45,33.04l-51.46 -14 0 89.25 51.46 13.99 151.62 -41.25 0 -126.46c23.33,-6.34 46.65,-12.73 69.99,-19.02l0 118.79c0,16.27 11.4,23.98 26.79,19.79l0 17.79c-82.68,22.49 -165.99,44.29 -248.4,67.58 -82.42,-23.29 -165.72,-45.09 -248.41,-67.58l0 -17.8c15.3,4.16 26.81,-3.36 26.81,-19.78l0 -352.81c12.09,-11.64 24.27,-23.19 36.38,-34.82l370.43 0c12.16,11.57 24.32,23.18 36.4,34.83l0 139.49c-23.33,6.35 -46.68,12.65 -69.99,19.05l0 -156.27 -303.25 0 0 377.22 30.19 8.22 0 -319.94 36.39 -34.81zm85.05 458.07l248.4 -67.57 0 39.74c-82.67,22.18 -166.08,44.3 -248.4,67.57 -82.33,-23.27 -165.74,-45.39 -248.41,-67.57l0 -39.74 248.41 67.57zm51.45 -210.74l0 -210.24 -102.91 0 0 210.24 51.46 14.01 51.45 -14.01z"/>
   <path class="fil2" d="M3452.62 593.38c0,21.1 0.02,24.77 22.59,29.59l0 11.53 -86.01 0 0 -11.53c22.21,-4.74 22.6,-8.67 22.6,-29.18l0 -135.39c0,-21.17 -0.04,-24.65 -22.6,-29.61l0 -11.52 86.01 0 0 11.57c-22.48,4.31 -22.59,9.15 -22.59,29.56l0 134.98zm1138.62 2.74c-4.17,-14.66 -10.84,-30.1 -16.33,-44.4l-77.89 0c-5.22,13.09 -13.1,29.79 -16.06,43.21 -4.72,20.03 3.4,25.55 23.31,27.85l0.36 11.72 -86.94 0 -0.35 -11.69c19.07,-2.5 26.91,-18.89 33.49,-34.08l74.76 -171.46 35.64 0c24.09,58.51 47.61,117.23 71.62,175.77 6.66,16.31 10.89,26.1 30.45,29.9l0.35 11.56 -93.52 0 -0.35 -11.63c19.86,-3.22 27.43,-6.08 21.46,-26.75zm-23.28 -62.45c-10.29,-26.63 -20.68,-53.22 -31.32,-80.17 -10.94,26.87 -21.71,53.53 -32.39,80.17l63.71 0zm-670.37 62.45c-4.17,-14.66 -10.85,-30.1 -16.34,-44.4l-77.88 0c-5.22,13.09 -13.1,29.79 -16.07,43.21 -4.72,20.03 3.41,25.55 23.32,27.85l0.35 11.72 -86.93 0 -0.36 -11.69c19.08,-2.5 26.92,-18.89 33.49,-34.08l74.77 -171.46 35.64 0c24.08,58.51 47.61,117.23 71.62,175.77 6.66,16.31 10.88,26.1 30.45,29.9l0.35 11.56 -93.53 0 -0.35 -11.63c19.86,-3.22 27.44,-6.08 21.47,-26.75zm-23.28 -62.45c-10.29,-26.63 -20.69,-53.22 -31.32,-80.17 -10.95,26.87 -21.71,53.53 -32.39,80.17l63.71 0zm-141.42 -57.78l-22.84 0c-13.21,-42.26 -20.61,-40.81 -63.58,-40.63l0 158.12c0,21.1 0.01,24.77 22.59,29.59l0 11.53 -86.02 0 0 -11.53c22.22,-4.74 22.61,-8.67 22.61,-29.18l0 -158.53c-43.36,-0.18 -50.31,-1.35 -63.04,40.63l-23.07 0 0 -58.62 213.35 0 0 58.62zm-688.59 120.23c-4.17,-14.66 -10.85,-30.1 -16.34,-44.4l-77.88 0c-5.22,13.09 -13.1,29.79 -16.07,43.21 -4.72,20.03 3.41,25.55 23.32,27.85l0.35 11.72 -86.93 0 -0.36 -11.69c19.08,-2.5 26.92,-18.89 33.49,-34.08l74.77 -171.46 35.64 0c24.08,58.51 47.61,117.23 71.62,175.77 6.66,16.31 10.88,26.1 30.45,29.9l0.35 11.56 -93.53 0 -0.35 -11.63c19.86,-3.22 27.44,-6.08 21.47,-26.75zm-23.28 -62.45c-10.29,-26.63 -20.69,-53.22 -31.32,-80.17 -10.95,26.87 -21.71,53.53 -32.39,80.17l63.71 0zm1047.46 -75.27l-0.19 158.12 53.69 0c31.79,-0.6 35.42,-15.05 43.41,-40.63l22.84 0 0 58.62 -183.17 0 0 -11.53c22.56,-5.03 22.6,-8.34 22.6,-29.6l0 -135.4c0,-20.41 -0.39,-24.51 -22.6,-29.17l0 -11.54 86.01 0 0 11.54c-22.57,4.73 -22.59,8.6 -22.59,29.59zm228.77 -58.88l0.14 117.82 57.85 0c61.05,0 61.01,-117.82 0,-117.82l-57.99 0zm0.19 193.86c0.01,21.1 0.02,24.77 22.6,29.59l0 11.53 -86.01 0 0 -11.53c22.21,-4.74 22.59,-8.67 22.59,-29.18l0 -171.19c0,-21.16 -0.03,-24.64 -22.59,-29.6l0 -11.53 146.39 0c86.18,0 86.17,153.92 0,153.92l-83.02 0 0.04 57.99zm-1082.14 -59.71l35.55 0c62.23,0 62.23,-98.35 0,-98.35l-35.68 0 0.13 98.35zm-1.64 -116.4l62.38 0c86.79,0 86.79,134.45 0,134.45l-60.72 0 0.04 41.66c0,20.86 -0.12,24.74 22.59,29.59l0 11.53 -86.01 0 0 -11.53c22.21,-4.74 22.6,-8.67 22.6,-29.18l0 -135.39c0,-20.94 0.11,-24.62 -22.6,-29.61l0 -11.52 61.72 0zm-381.45 23.13l-25.04 0c-10.34,-30.19 -26.73,-42.85 -59.04,-42.85 -59.69,0 -92.02,59.14 -92.02,109.78 0,49.58 25.97,111.11 86.6,111.11 38.05,0 51.42,-12.81 64.52,-45.48l24.98 0 0 55c-31.34,6.7 -62.2,9.49 -94.3,9.49 -82.74,0 -130.78,-48.99 -130.78,-126.99 0,-81.19 62.55,-131.92 145.57,-131.92 27.37,0 52.81,2.86 79.51,8.55l0 53.31zm1904.05 102.87l-55.78 -83.91c-8.52,-13.08 -16.91,-26.39 -33.55,-30.62l0 -11.47 86.74 0 0 11.77c-21.51,1.91 -21.84,10.24 -12.2,26.53l42.41 65.62 42.51 -61.35c8.64,-14.39 14.31,-29.12 -9.13,-30.75l0 -11.82 77.65 0 0 11.4c-19.71,5.68 -30.23,20.75 -41.19,36.16l-56.64 78.2 0 50.35c0,20.86 -0.11,24.75 22.59,29.59l0 11.53 -86.01 0 0 -11.53c22.21,-4.74 22.6,-8.67 22.6,-29.18l0 -50.52z"/>
  </g>
 </g>
</svg>
